<?xml version="1.0" encoding="utf-8"?>
<!-- Generator: Adobe Illustrator 18.1.1, SVG Export Plug-In . SVG Version: 6.00 Build 0)  -->
<svg version="1.1" id="Capa_1" xmlns="http://www.w3.org/2000/svg" xmlns:xlink="http://www.w3.org/1999/xlink" x="0px" y="0px"
	 viewBox="0 0 1400 980" enable-background="new 0 0 1400 980" xml:space="preserve">
<path shape-rendering="auto" color-rendering="auto" image-rendering="auto" fill="#5B5B5F" stroke="#273B50" stroke-width="5.000000e-002" d="
	M222.3,35.1l-8.1,45.7c-10.2,1.7-20.3,4.3-30,7.8l-29.8-35.4l-36.1,20.8l15.4,43.2c-8.2,6.7-15.7,14.1-22.5,22.1l-42.7-15.5
	L47.7,160L82,189c-3.8,10.1-6.7,20.5-8.6,31.1l-43.9,7.8v41.7l43.9,8c1.8,10.7,4.5,21.3,8.3,31.5l-33.9,28.5l20.8,36.1l41.6-14.9
	c7,8.5,14.7,16.3,23.2,23.3l-15,41.4l36.1,20.8l28.5-33.6c10.3,3.9,20.9,6.7,31.8,8.5l7.7,43.3H264l7.9-43.4
	c10.7-1.9,21.2-4.8,31.4-8.7l28.8,33.9l36.1-20.8l-15.3-42.3c8.2-6.8,15.7-14.4,22.5-22.7l42.6,15.2l20.8-36.1l-35.1-29.5
	c3.6-9.8,6.3-20,8.1-30.3l45.1-8.2v-41.7l-45.6-8.1c-1.8-10.1-4.5-20.1-8.1-29.8l35.5-30.1l-20.8-36.1L374,139.8
	c-6.6-7.9-13.8-15.1-21.7-21.7l15.7-44L332,53.3L302,89c-9.6-3.6-19.6-6.3-29.7-8.2L264,35.1L222.3,35.1L222.3,35.1z M243.2,182.1
	c36.9,0,66.8,29.9,66.8,66.8s-29.9,66.8-66.8,66.8c0,0,0,0,0,0c-36.9,0-66.8-29.9-66.8-66.8S206.3,182.1,243.2,182.1L243.2,182.1z
	 M243.2,208.8c-22.1,0-40.1,17.9-40.1,40.1l0,0c0,22.1,17.9,40.1,40.1,40.1l0,0c22.1,0,40.1-17.9,40.1-40.1l0,0
	C283.2,226.7,265.3,208.8,243.2,208.8L243.2,208.8z"/>
<g>
	<path fill="#5B5B5F" stroke="#273B50" stroke-width="5.000000e-002" d="M1337,251.4c11.3-3.2,22.2-6.6,33.5-9.2
		c-0.6-8.8-1.1-16.2-1.7-24.6c-12.4-1.1-23.9-2.1-35.2-3.2c-2.1-8.1-3.8-15.2-5.3-22.9c9.8-6.6,19.4-13,28.6-19.7
		c-3.8-8.1-6.4-15.2-9.8-22.2c-12.4,2.8-23.3,5.3-34.2,8.1c-4.9-7-8.8-13.7-13-19.7c7.5-9.8,14.1-17.9,21.1-27.8
		c-6-6-11.3-11.3-17.3-17.9c-9.8,6.6-19.4,12.6-28.6,18.6c-6.4-4.9-12-9.2-18.4-14.1c3.8-10.9,7-21.8,10.3-32.7
		c-7.5-3.8-14.1-7.7-21.6-11.3c-7,9.2-14.1,17.9-20.5,26.7c-8.8-2.8-15.2-5.3-23.3-8.1V38.4c-8.8-1.1-16.9-2.1-24.3-3.2
		c-3.8,10.9-7.5,20.7-10.9,30.5h-23.9c-3.8-10.3-7.5-20.1-11.3-30.5c-9.2,2.1-16.2,3.2-25,4.9v32.7c-8.1,2.8-14.5,5.3-21.6,7.7
		c-7-8.8-14.1-16.9-20.5-25.6c-8.1,4.9-14.5,8.8-22.2,12.6c3.8,10.9,7,21.1,10.3,31.6c-6.4,4.9-12.4,9.8-17.9,14.1
		c-9.8-6-18.4-11.3-27.6-17.3c-6,7-11.3,13-16.9,19c7,9.2,13,17.3,19.4,26.1c-4.3,6.6-8.8,13-12.4,19c-11.3-2.1-21.1-4.9-31.4-7
		c-3.8,8.8-6.4,15.8-9.8,23.3c9.8,6.6,17.9,12,27.1,17.9c-2.1,7.7-3.8,14.7-5.3,22.2c-10.9,1.1-21.1,2.1-32.5,3.8
		c-0.6,8.1-1.1,16.2-1.7,25c11.3,3.2,21.1,5.3,31.4,8.8c1.1,7.7,1.7,14.7,2.1,21.8c-10.3,4.9-20.1,9.8-29.7,14.7
		c2.1,8.8,3.8,15.8,6,24.6c12.4-1.1,22.6-1.7,33.5-2.8c3.2,7.7,6,13.7,9.2,20.7c-8.8,7.7-16.9,15.2-25,23.3
		c5.3,7.7,9.8,14.1,14.1,20.7c11.3-4.3,21.6-8.8,31.4-13c5.3,6,10.3,10.9,15.2,16.2c-5.3,10.3-10.9,20.1-16.2,30.3
		c7,5.3,13.5,10.3,20.5,15.2c8.8-8.1,16.9-15.8,25-23.3c7,3.8,13,7,19.4,10.3c-1.7,12-3.2,23.3-4.9,35.2c8.1,2.8,15.8,5.3,23.9,8.1
		c6-11.3,10.9-21.1,16.2-31c7.5,1.1,14.1,2.1,21.6,3.2c2.1,11.3,4.3,22.9,6.4,34.2h25.4c2.1-12,3.8-22.9,6-34.2
		c7.5-1.7,14.5-2.8,21.6-3.8c6,10.9,11.3,21.1,17.3,31.6c8.8-2.8,16.2-6,23.3-8.1c-1.7-13-3.8-24.6-5.3-35.9
		c7.5-3.8,13.5-7,19.4-10.3c9.2,8.8,17.9,16.2,27.1,24.3c7-5.3,13-10.9,19.4-15.8c-6.4-11.3-12-21.1-17.3-31.6
		c6-6,10.9-11.3,15.8-16.2c11.3,4.9,21.6,9.2,33.1,13.7c4.9-7,8.8-13.7,13-20.1c-9.2-9.2-17.9-17.3-26.1-25c3.2-7.7,6-14.1,9.2-20.7
		c12,1.1,23.3,1.7,35.7,2.8c2.1-8.8,3.8-15.8,6-23.9c-11.3-5.3-22.2-9.8-33.1-14.7C1335.3,265.5,1335.9,258.4,1337,251.4L1337,251.4
		z M1155,371.4c-67.1-1.1-120.7-56.6-119.6-123.9c1.1-67.9,55.3-121.1,122.8-120.7c66.6,1.1,121.3,56,120.7,121.7
		C1278.5,317.2,1222.1,372.5,1155,371.4z"/>
	<path fill="#5B5B5F" stroke="#273B50" stroke-width="5.000000e-002" d="M1157.4,355.2c58.1-0.2,106.2-48.1,106.6-106.4
		s-48.7-107.2-107.4-107.2c-58.1,0-106.2,48.3-105.9,106.4C1050.4,307.8,1098,355.4,1157.4,355.2L1157.4,355.2z M1155.5,201
		c27.3,0,48.1,20.9,48.1,48.5c0.2,26.5-20.3,47.2-47,47.4c-26.5,0.2-48.1-20.3-48.5-46.1C1107.8,223.4,1129.2,201,1155.5,201
		L1155.5,201z"/>
</g>
<path fill="#5B5B5F" stroke="#273B50" stroke-width="5.000000e-002" d="M879,251.5c11.3-3.4,22.8-6.8,34.6-10.2
	c-0.9-9-1.7-16-2.6-23.7c-12.2-1.3-23.7-2.6-35-3.4c-1.7-8.1-3.4-15.1-5.5-22.4c10-6.8,19.4-13.2,29-19.8c-3.8-8.1-7.3-15.1-10.5-22
	c-12.2,3-22.8,5.5-33.3,8.1c-4.7-7.3-8.3-13.2-12.6-19.4c6.8-9.4,13.4-18.1,20.7-28c-6-6.4-11.7-11.9-17.3-17.7
	c-10,6.8-19,12.8-28.2,18.6c-6.4-4.7-12.2-9.8-18.6-14.3c3.8-11.1,6.8-21.6,10-32.6c-7.7-3.8-14.3-7.3-22-11.1
	c-7.3,9.4-13.4,17.7-20.3,26.2c-7.7-2.6-15.1-5.1-23.3-8.1V38.5c-9.2-1.3-16.9-2.1-24.5-3c-4.3,11.5-7.7,20.7-10.5,30.5h-24.1
	c-3.8-10.7-7.3-19.8-10.9-30.5c-8.3,1.3-15.6,3-24.5,4.3v32.6c-8.3,3-15.6,5.5-22.8,8.1c-6.8-9-13-16.4-19.8-25.4
	c-8.1,4.7-14.7,8.5-22.4,12.8c3.8,11.1,7.3,20.7,10.5,30.9c-6.4,5.1-12.2,9.8-18.1,14.3c-9.6-6-18.1-11.5-27.3-17.3
	c-6,6.4-11.3,12.8-16.9,19c7.3,9,13.4,17.3,19.8,25.8c-4.7,6.8-8.3,12.8-12.6,19c-10.5-2.6-20.3-4.7-31.6-7.3
	c-3.4,8.1-6.4,15.6-9.6,23.7c9.6,6.4,18.1,11.9,26.9,17.3c-1.7,8.1-3.4,15.1-5.1,22.4c-11.3,1.3-21.6,2.1-32.4,3.4
	c-0.9,9.4-1.3,17.3-2.1,25.4c11.7,3,22,6,32.4,9c0.4,7.7,0.9,14.7,1.3,22c-10,4.7-19.8,9-29.9,13.9c2.1,8.5,4.3,16,6.4,24.1
	c12.2-0.9,22.8-1.3,33.3-2.1c3.4,6.8,6,13.2,8.7,20.3c-8.1,7.7-16,15.1-24.5,23.3c5.1,7.7,9.6,13.9,14.3,20.7
	c10.9-4.7,21.1-9,31.2-13.2c5.5,6,10,11.1,14.7,16c-5.1,10.7-10,20.3-15.6,30.5c7.3,5.5,13.4,10.7,19.8,15.6
	c8.7-8.1,17.3-15.6,25.6-23.3c6.4,3.4,12.2,6.8,19,10.7c-1.7,11.5-3.4,22.8-5.1,34.8c8.3,2.6,16,5.1,23.7,7.7
	c6-10.7,11.7-20.7,17.3-30.9c7.7,1.7,14.3,2.6,21.1,3.8c2.6,12.4,4.7,23.3,6.8,34.8h24.5c2.6-12.4,4.7-23.7,6.8-35.2
	c7.7-1.3,14.7-2.1,21.6-3c6,11.1,11.3,20.3,17.3,30.9c8.3-3,15.6-5.5,23.3-8.5c-2.1-12.4-3.8-23.3-5.5-35.2
	c6.4-3.4,12.6-6.8,19.4-10.7c8.7,8.5,17.7,16,26.9,24.1c6.8-5.5,13-10.2,19.4-15.1c-6-11.1-11.3-21.1-17.3-31.8
	c5.5-5.5,10-10.7,15.6-16.4c10.9,4.7,21.6,9.4,32.9,14.3c4.7-7.3,8.7-13.9,13.4-20.7c-9.2-9-17.7-16.4-26.5-25
	c3.4-7.3,6.8-13.4,9.6-20.3c11.7,0.9,22.8,1.3,35.4,2.1c2.1-7.7,3.8-15.6,6-23.7c-11.3-5.1-21.6-9.4-32.4-14.3
	C877.7,266.6,878.1,259.2,879,251.5L879,251.5z M715.9,128.4c32.9,4.3,58,19.4,80,45.7c-16,9-31.6,18.1-46.3,26.7
	c-11.3-6.4-22-12.4-33.7-19V128.4L715.9,128.4z M684.4,129.7v51.6c-10.9,6.8-22,12.8-33.7,19.4c-14.3-8.1-29.4-17.3-45-26.2
	C621.6,149.9,656.6,130.1,684.4,129.7z M588.3,200.3c16.4,9.4,31.6,18.1,45.9,26.2v41c-14.7,8.5-29.9,17.3-46.3,27.1
	C575.3,263,576.2,232.9,588.3,200.3z M684.4,369.7c-33.7-4.7-59.7-20.3-81.7-48.2c16-9,31.2-17.7,45.4-26.2
	c12.2,7.3,23.7,13.9,36.3,21.6V369.7z M699.9,284.1c-19.4,0-34.6-16-34.6-36.1c0.4-19,15.6-34.4,35-33.9c19,0,34.1,15.1,34.1,34.4
	C734.9,267.9,718.9,284.1,699.9,284.1L699.9,284.1z M715.9,370.1v-53.3c11.7-7.3,23.3-13.9,36.3-21.6c13.4,8.1,29,16.9,45.4,26.2
	C776.5,348.8,750.1,364.6,715.9,370.1L715.9,370.1z M812.4,294.6c-16-9.4-31.6-18.6-46.3-27.1v-41c13.4-8.1,28.6-16.4,45-26.2
	C824.6,232.1,824.6,262.6,812.4,294.6L812.4,294.6z"/>
<path fill="#5B5B5F" stroke="#273B50" stroke-width="5.000000e-002" d="M1336.1,714.2c11.3-3.2,22.7-6.2,34.5-9.8
	c-0.4-8.3-1.5-15.6-2.1-23.8c-12.4-1.5-23.8-2.6-34.9-3.6c-2.1-7.7-4.1-15-5.6-22.7c9.8-6.6,19-12.8,29.3-19.7
	c-4.1-7.7-7.3-15-10.3-22.3c-11.8,3.2-22.7,5.8-34,8.3c-4.1-6.6-8.8-13.5-12.8-19.7c7.3-9.8,13.9-18.6,21.2-28
	c-6.2-6.2-11.3-12-16.9-17.5c-10.3,6.2-19.5,12.4-28.9,18.6c-6.6-5.1-12.4-9.8-18.6-15c3.6-10.9,6.6-21.2,10.3-32.1
	c-7.7-4.1-15-7.7-22-11.3c-7.3,9.4-13.9,18.2-20.5,26.3c-8.1-2.6-15.4-5.1-23.1-8.3v-33.2c-8.8-1.1-16.5-2.1-24.6-3.2
	c-3.6,10.9-7.3,21.2-10.7,31H1143c-4.1-10.3-7.7-20.1-11.8-31c-8.8,2.1-16.5,3.6-24.6,5.1v32.5c-7.7,2.6-15,5.1-22,7.7
	c-7.3-8.8-13.5-17.1-20.1-25.9c-8.1,4.7-15,8.8-22,12.8c3.6,10.9,6.6,20.8,10.3,31c-6.6,4.7-12.4,9.4-18.6,13.9
	c-9.2-5.8-18-11.3-27.2-17.1c-5.6,6.6-11.3,12.8-16.9,19c7.3,8.8,13.9,17.5,20.1,25.9c-4.7,6.6-8.1,12.8-12.8,19
	c-10.3-2.1-20.1-4.7-31.5-7.3c-3,8.3-6.6,16.1-9.8,23.8c9.8,6.2,18,12,27.2,18.2c-2.1,7.3-3.6,14.6-5.6,22.3
	c-10.7,1.1-20.5,2.1-31.9,3.2c-1.1,8.8-1.5,17.1-2.6,25.3c11.8,3.2,22,6.2,32.3,8.8c0.4,8.3,1.1,15,1.5,22.3
	c-10.3,4.7-19.5,9.4-29.7,13.9c2.1,8.8,4.1,16.5,6.2,24.8c11.8-1.1,22-1.5,33.4-2.6c3,6.6,5.6,12.8,9.2,20.1
	c-8.1,8.3-16.5,15.6-24.6,23.8c5.1,7.3,9.8,13.9,14.3,20.8c10.7-4.7,21.2-8.8,31.5-12.8c5.1,5.8,9.8,10.9,14.3,16.1
	c-5.1,10.3-10.3,20.1-16.1,30.6c7.3,5.8,13.5,10.3,20.1,15.6c9.2-8.3,17.5-15.6,25.7-23.3c6.6,3.6,12.4,6.6,19,10.3
	c-1.5,12-3,23.3-4.7,35.1c8.1,2.6,16.1,5.1,23.8,7.7c6.2-11.3,11.3-21.2,16.9-31c7.7,1.5,14.3,2.6,21.2,3.6
	c2.6,12,4.7,23.3,6.6,34.2h25.3c2.1-12,4.1-22.7,6.2-34.2c7.7-1.5,15-2.6,21.6-3.2c6.2,10.9,11.3,20.1,16.9,31
	c8.8-3.2,16.1-5.8,23.8-8.3c-2.1-12.8-3.6-24.4-5.6-35.7c7.3-3.6,13.5-7.3,19.5-10.3c9.2,7.7,18,16.1,27.2,24.4
	c6.6-5.8,12.8-10.3,19-15.6c-5.6-10.9-11.3-21.2-16.9-32.1c5.1-5.8,10.3-10.9,15.4-16.5c10.7,5.1,21.6,9.4,33,14.6
	c4.7-7.3,8.8-13.9,13.5-21.2c-9.2-8.8-17.5-16.5-26.3-24.4c3.6-7.3,6.2-13.5,9.2-20.8c11.8,0.4,23.1,1.5,36,2.1
	c2.1-8.3,3.6-16.1,5.6-23.8c-11.3-5.1-21.6-9.8-32.3-14.6C1335.2,729.1,1335.7,721.9,1336.1,714.2L1336.1,714.2z M1156.5,749.9
	c-20.1,0-37.5-17.5-37.5-38.3c0-20.1,16.5-37.2,37-37.2c21.2-0.4,37.5,16.1,38.1,37.2C1194.2,732.4,1177.7,749.9,1156.5,749.9z"/>
<path fill="#5B5B5F" stroke="#273B50" stroke-width="5.000000e-002" d="M878.9,713.1c12-3.4,23.3-6.2,34.6-9.6
	c-0.6-8.5-1.1-16-2.4-23.9c-12-1.1-23.3-2.4-34.6-2.8c-2.4-7.9-4.1-15.4-5.8-23.3c9.6-6.2,18.8-12.6,28.8-19.4
	c-3.4-7.5-6.8-14.3-10.3-22.2c-12,2.8-22.7,5.8-34,7.9c-4.1-6.8-7.9-13-12.4-19.4c6.8-9.2,13.7-18.2,21.6-28.6
	c-6.2-5.8-12-11.3-17.5-17.1c-10.3,6.8-19.2,12.6-28.8,18.8c-6.2-5.1-12-9.6-18.2-14.7c3.4-11.3,6.8-21.6,10.3-32.5
	c-7.9-4.1-14.7-7.5-22.2-10.9c-7.5,9.2-13.7,17.7-20.5,26.3c-7.9-2.8-15.4-5.8-23.3-7.9v-33.1c-8.5-1.1-16.5-2.4-24.4-3.4
	c-4.1,10.9-7.5,20.5-10.7,30.3h-23.9c-3.4-9.6-7.5-19.4-10.7-29.7c-8.5,1.1-16.5,2.8-25,4.1v32.5c-7.9,2.8-15.4,5.8-22.2,7.9
	c-7.5-8.5-14.1-17.1-20.5-25.6c-7.9,5.1-14.7,8.5-21.6,12.6c3.4,11.3,6.8,21.6,9.6,31.4c-6.8,5.1-12.4,9.6-18.2,14.3
	c-9-5.8-17.5-11.3-27.1-17.1c-5.8,6.2-10.7,12.6-17.1,18.8c7.5,9.2,13.7,17.7,19.9,25.6c-4.5,7.5-8.5,13-12.4,19.4
	c-10.7-2.4-20.5-4.5-31.8-6.8c-3.4,7.9-6.2,15.4-9.6,23.3c9.6,6.2,18.2,12,27.4,17.7c-1.7,7.5-3.4,14.3-5.1,22.2
	c-11.3,1.1-21.6,2.4-32.9,4.1c-0.6,8.5-1.1,16.5-1.7,25c11.3,2.8,21.6,5.8,32.3,8.5c0,7.9,0.6,15.4,1.1,22.2
	c-10.3,5.1-19.9,9.2-30.1,13.7c2.4,9.2,4.5,17.1,6.8,25c12-1.1,22.2-1.7,32.9-2.8c3.4,6.8,6.2,13.7,9.6,20.5
	c-8.5,7.9-16.5,14.7-25,23.3c5.1,6.8,9,13.7,14.1,21.2c10.7-4.5,20.9-9.2,31.2-13.7c5.1,5.8,10.3,11.3,15.4,16.5
	c-5.8,10.3-10.7,19.9-16.5,30.3c7.5,5.8,13.7,10.9,20.5,16c9-8.5,17.5-16,25.6-23.3c6.8,3.4,13,6.8,19.2,10.3
	c-1.7,12-3.4,22.9-5.1,34.8c7.9,2.8,15.8,5.1,23.9,7.9c5.8-10.9,10.7-20.5,16.5-30.8c7.9,1.1,14.7,2.4,21.6,4.1
	c2.4,12,4.5,22.9,6.8,33.8h25c1.7-12,4.1-22.9,5.8-34.2c7.9-1.7,15.4-2.4,22.2-3.4c5.8,10.9,11.3,20.5,17.1,31.4
	c8.5-2.8,15.8-5.8,23.3-8.5c-1.7-12.6-3.4-23.9-5.1-35.5c6.8-3.4,12.4-6.8,19.2-10.3c8.5,7.9,17.5,15.4,26.7,23.9
	c6.2-5.1,12.4-9.6,19.9-15.4c-6.2-11.3-12-21.2-17.5-32.1c5.8-5.8,10.3-10.9,15.4-16c11.3,4.5,22.2,9.2,33.6,13.7
	c4.5-7.5,9.2-14.3,13-21.2c-9-8.5-17.5-16-26.1-23.9c3.4-7.5,6.2-14.3,9.6-20.5c12,0.6,23.3,1.1,35.3,1.7c2.4-7.9,4.1-15.4,6.2-23.3
	c-11.3-5.1-22.2-9.6-32.3-14.7C878.3,728.1,878.3,720.6,878.9,713.1L878.9,713.1z M623.5,782.8c-7.5,13-15.4,28-32.3,28
	c-17.1,0.6-22.7-14.7-29.5-27.4c-15.8-28.6-2.4-47.4,34.6-47.4C628,736,639.4,754.8,623.5,782.8L623.5,782.8z M630.8,668
	c-7.5,12.6-20.9,12-33.6,12.6c-14.1-1.1-29.5,0-38-14.3c-7.9-14.7,1.7-27.4,9.2-39.3c15.4-25,31.8-26.3,50.4-4.1
	c2.4,2.4,4.1,4.5,5.8,7.5C631.5,641.7,637.6,654.3,630.8,668z M696.6,867.8c-34,0-44.9-16.5-30.1-48.5c0-0.6,0.6-0.6,0.6-1.1
	c6.8-12.6,14.1-25,30.1-25.6c14.7,0,21.6,12.6,28.4,23.9c0,0.6,0.6,1.7,1.1,2.4C743.2,851.1,733.6,867.8,696.6,867.8L696.6,867.8z
	 M699.6,748.6c-20.9,0-37.4-17.1-37.4-38.3c0-19.9,18.2-37.6,38.7-37.2c19.9,0.6,37,17.7,37,37.6C737,731.9,720.6,748.6,699.6,748.6
	L699.6,748.6z M718.9,622.5c-11.3,10.3-23.9,10.3-32.9-1.1c-7.9-10.3-14.7-22.2-19.2-34.8c-5.8-17.7,3.4-29.1,22.2-31.4
	c5.1-0.6,10.3-0.6,14.7-1.1c5.1,0.6,10.3,0.6,14.7,1.7c14.7,2.4,21.6,10.3,20.5,24.6C737.7,596.6,731.2,610.9,718.9,622.5z
	 M831.3,795.4c-14.7,25-31.2,26.3-50.4,4.1c-2.4-2.8-4.5-5.8-6.2-8.5c-6.8-11.3-12.4-23.3-5.8-36.5c6.8-12.6,20.5-12,33.6-13
	c13.7,1.7,29.5,0.6,37.4,14.7C848.4,770.2,838.5,783.4,831.3,795.4L831.3,795.4z M803.5,685.7c-32.3,0-43.2-18.2-27.1-46.2
	c7.5-13,15.4-28,32.3-28.6c16.5,0,22.7,14.7,28.8,26.9C853.9,667.4,840.9,685.7,803.5,685.7z"/>
<path fill="#5B5B5F" stroke="#273B50" stroke-width="5.000000e-002" d="M422.6,713.6c12.2-3.2,22.7-6.4,34.2-9.6
	c-1.1-8.6-1.5-15.8-2.1-24.4c-12.2-1.1-23.7-2.1-34.9-3.2c-2.1-8.6-4.3-15.4-5.8-22.9c10-6.4,19.5-12.6,28.9-19.7
	c-3.6-7.9-6.8-14.8-10-22.2c-12.2,3.2-22.7,5.8-34.2,8.6c-4.3-7.5-8.3-13.7-12.2-20.1c6.8-9.6,13.7-18,21.2-28
	c-5.8-5.8-11.5-11.8-17.3-16.9c-10.5,6.4-19.5,12.2-28.9,18.6c-6.4-5.3-12.2-10-18.4-14.8c3.6-11.1,6.8-21.2,10.5-32.3
	c-7.9-4.3-14.8-7.5-22-11.1c-7.3,9-13.7,17.5-20.5,25.9c-7.9-2.6-15.2-5.3-23.1-7.9v-33.1c-9-1.5-16.2-2.6-24.2-3.6
	c-4.3,11.1-7.3,21.2-11.1,30.8h-23.7c-3.6-9.6-7.3-19.7-11.1-30.1c-9,1.5-16.9,3.2-24.8,4.7v32.9c-7.9,2.1-14.8,4.7-22,7.5
	c-6.8-8.6-13.7-16.9-20.5-25.4c-7.9,4.3-14.8,8.6-21.6,12.6c3.6,11.1,6.8,20.7,10,30.8c-6.4,5.3-12.2,9.6-18,14.3
	c-9.4-5.8-18.4-11.1-28-16.9c-5.8,6.8-11.1,12.6-16.2,19c6.8,9,13.3,17.5,19.5,25.4c-4.3,6.8-7.9,12.6-12.2,19.7
	c-11.1-2.6-21.2-4.7-32.1-7.5c-3.6,8.6-6.4,15.8-9.4,23.3c9.4,6.4,18,12.2,26.9,18c-1.5,7.9-3.6,14.8-5.3,22.2
	c-10.5,1.1-21.2,2.6-32.1,3.6c-1.1,8.6-1.5,16.5-2.6,24.8c11.5,3.2,22,6.4,32.7,9c0.4,7.9,1.1,14.8,1.5,22.2
	c-10,4.7-20.1,9-29.9,14.3c2.1,8.6,4.3,16.5,6.4,24.4c12.2-1.1,22.7-1.5,33.1-2.6c3.2,7.5,6.4,13.7,9.4,20.7
	c-8.3,7.5-16.2,15.4-24.8,23.3c5.3,7.5,9.4,14.3,14.3,21.2c10.5-4.7,20.5-9,31-13.7c5.3,5.8,10,10.7,15.2,16.5
	c-5.8,10.7-10.5,20.1-16.2,30.8c7.3,5.3,13.7,10,20.5,15.4c9-8.6,16.9-15.8,25.2-23.3c6.8,3.6,12.6,6.8,19,10.7
	c-1.5,11.1-3.2,22.2-4.7,34.4c7.9,2.6,15.2,5.3,23.7,8.6c5.8-11.1,11.1-21.2,16.9-31.2c7.9,1.5,14.8,2.6,21.6,4.3
	c2.1,12.2,4.3,22.9,6.4,33.4h24.8c2.1-12.2,4.3-22.9,6.4-34c7.3-1.5,14.3-2.6,21.6-3.6c5.8,10.7,11.5,20.7,17.3,31.2
	c9-2.6,15.8-5.3,23.1-7.9c-1.5-12.6-3.6-23.9-5.3-35.5c6.8-4.3,13.3-7.5,19.5-10.7c9.4,8.6,18,15.8,26.9,23.9
	c6.8-5.3,12.6-10,19.5-15.4c-6.4-10.7-11.5-21.2-17.3-31.9c5.3-5.3,10-10.7,15.2-16.5c11.1,4.7,21.6,9,33.1,14.3
	c4.7-7.5,9-14.3,13.3-20.7c-9.4-9-18-16.9-25.9-24.8c3.2-7.9,6.4-14.3,9.4-20.7c12.2,1.1,23.1,1.5,35.3,2.6
	c2.1-8.6,3.6-16.5,5.8-24.4c-11.5-4.7-21.6-9.6-32.1-14.3C421.6,728.4,422.2,720.9,422.6,713.6L422.6,713.6z M243.7,833.8
	c-67.3,0-121.7-55.2-121.7-124.4C121.6,643.7,176.8,589,243.7,589c67.3,0.4,121.7,55.2,121,122.3
	C364.7,778.6,310.6,833.8,243.7,833.8L243.7,833.8z"/>
<g>
	<g>
		<g>
			<path fill="#5B5B5F" stroke="#273B50" stroke-width="5.000000e-002" d="M717.4,949.1c0.5,0,0.9,0.4,0.9,0.4l-7.5,16
				c-0.8,0-2.8,0.1-3.3,0.1c-0.5,0-0.9-0.4-0.9-0.4l-2.6-16c1.6,0,3.5-0.1,4.1-0.1c0.5,0,0.9,0.4,0.9,0.4l0.8,7.8
				c0.1,0.7,0.1,1.6,0,2.6c0.3-1.1,0.5-2.1,0.8-2.8l3.1-7.9C715.1,949.2,716.8,949.1,717.4,949.1L717.4,949.1z"/>
		</g>
		<g>
			<path fill="#5B5B5F" stroke="#273B50" stroke-width="5.000000e-002" d="M725.1,957c0,1.7-1,2.9-3.4,3.4l-2.5,0.5
				c0.2,1.1,0.9,1.6,2,1.6c1.4,0,2.3-1.1,2.3-1.1s0.7,0.4,0.7,1.2c0,1.5-2.2,3-4.8,3c-2.6,0-4.4-1.7-4.4-4.5c0-3.2,2.3-7.6,6.4-7.6
				C723.7,953.7,725.1,955,725.1,957L725.1,957z M720.8,958.7c0.5-0.2,0.7-0.6,0.7-1.1c0-0.5-0.2-1.2-0.7-1.2c-1,0-1.5,1.6-1.6,2.9
				L720.8,958.7z"/>
		</g>
		<g>
			<path fill="#5B5B5F" stroke="#273B50" stroke-width="5.000000e-002" d="M732,953.7c2.1,0,3.6,1.1,3.6,2.5c0,1.8-2.2,2.4-2.2,2.4
				s-0.6-1.9-2.1-1.9c-1,0-1.5,1-1.5,3.1c0,1.9,0.5,2.8,1.8,2.8c1.3,0,2.1-0.9,2.1-0.9s0.7,0.4,0.7,1.2c0,1.4-2.1,2.9-4.6,2.9
				c-2.7,0-4.3-1.7-4.3-4.4C725.5,958.1,727.8,953.7,732,953.7L732,953.7z"/>
		</g>
		<g>
			<path fill="#5B5B5F" stroke="#273B50" stroke-width="5.000000e-002" d="M741.9,951.1c0.5,0,0.8,0.4,0.8,0.4l-0.4,2.4h2.6
				l-0.6,1.9c-0.2,0.6-0.5,0.9-1.1,0.9h-1.4l-0.8,4.8c-0.1,0.8,0,1.1,0.6,1.1c0.5,0,0.9-0.3,0.9-0.3s0.7,0.4,0.7,1.2
				c0,1.2-1.7,2.3-3.8,2.3c-2.2,0-3.1-1.4-2.8-3.8l0.8-5.3h-1.4l0.6-1.9c0.2-0.5,0.6-0.9,1.1-0.9h0.7l0.8-2.3
				C740.5,951.4,741.4,951.1,741.9,951.1L741.9,951.1z"/>
		</g>
		<g>
			<path fill="#5B5B5F" stroke="#273B50" stroke-width="5.000000e-002" d="M754.5,957c0,1.7-1,2.9-3.4,3.4l-2.5,0.5
				c0.2,1.1,0.9,1.6,2,1.6c1.4,0,2.3-1.1,2.3-1.1s0.7,0.4,0.7,1.2c0,1.5-2.2,3-4.8,3c-2.6,0-4.4-1.7-4.4-4.5c0-3.2,2.3-7.6,6.4-7.6
				C753.1,953.7,754.5,955,754.5,957L754.5,957z M750.2,958.7c0.5-0.2,0.7-0.6,0.7-1.1c0-0.5-0.2-1.2-0.7-1.2c-1,0-1.5,1.6-1.6,2.9
				L750.2,958.7z"/>
		</g>
		<g>
			<path fill="#5B5B5F" stroke="#273B50" stroke-width="5.000000e-002" d="M764.9,957c0,1.7-1,2.9-3.4,3.4l-2.5,0.5
				c0.2,1.1,0.9,1.6,2,1.6c1.4,0,2.3-1.1,2.3-1.1s0.7,0.4,0.7,1.2c0,1.5-2.2,3-4.8,3c-2.6,0-4.4-1.7-4.4-4.5c0-3.2,2.3-7.6,6.4-7.6
				C763.5,953.7,764.9,955,764.9,957L764.9,957z M760.6,958.7c0.5-0.2,0.7-0.6,0.7-1.1c0-0.5-0.2-1.2-0.7-1.2c-1,0-1.5,1.6-1.6,2.9
				L760.6,958.7z"/>
		</g>
		<g>
			<path fill="#5B5B5F" stroke="#273B50" stroke-width="5.000000e-002" d="M773.4,961.4c0,0,0.9,0.8,0.9,2.1c0,1.8-1.5,2.3-2.8,2.3
				c-1.7,0-2.9-0.8-4.1-1.2c-0.3,0.4-0.7,0.8-1,1.2c0,0-1.9,0-1.9-1.3c0-1.5,2.6-4.2,5.4-7.2c-0.3-0.1-0.6-0.1-0.9-0.1
				c-1.6,0-2.2,0.8-2.2,0.8s-0.8-0.9-0.7-2.1c0.1-1.7,1.7-2.1,3-2.1c1.3,0,2.3,0.5,3.3,0.9l0.8-0.9c0,0,1.9,0.1,1.9,1.3
				c0,1.5-2.5,4.1-5.2,7c0.6,0.2,1.1,0.3,1.6,0.3C772.7,962.3,773.4,961.4,773.4,961.4L773.4,961.4z"/>
		</g>
		<g>
			<path fill="#5B5B5F" stroke="#273B50" stroke-width="5.000000e-002" d="M785.5,964.8c-0.7,4.1-3.5,6.2-7,6.2
				c-2.3,0-3.9-1.2-3.9-2.6c0-0.9,0.8-1.3,0.8-1.3s0.8,0.7,2.3,0.7c1.4,0,3.3-0.6,3.7-2.8l0.3-1.7c-1,1.4-2.2,2.5-3.8,2.5
				c-1.8,0-2.6-1.5-2.1-4.5l0.5-3.2c0.3-2,0.4-3.6,0.4-3.6c1.3-0.2,3-0.8,3.6-0.8c0.5,0,0.9,0.4,0.9,0.4l-0.6,4l-0.6,3.7
				c-0.1,0.3,0,0.5,0.3,0.5c1.5,0,2.3-4.3,2.3-4.3c0.3-2,0.4-3.6,0.4-3.6c1.3-0.2,3-0.8,3.6-0.8c0.5,0,0.9,0.4,0.9,0.4l-0.6,4
				L785.5,964.8z"/>
		</g>
	</g>
	<g>
		<path fill="#5B5B5F" stroke="#273B50" stroke-width="5.000000e-002" d="M612.8,954.3h4c0.9,0,1.6,0.1,2.1,0.2
			c0.6,0.2,1.2,0.5,1.6,1c0.5,0.5,0.8,1.1,1,1.8c0.2,0.7,0.4,1.6,0.4,2.6c0,0.9-0.1,1.7-0.3,2.3c-0.3,0.8-0.7,1.4-1.2,1.9
			c-0.4,0.4-0.9,0.7-1.5,0.9c-0.5,0.2-1.1,0.2-1.9,0.2h-4.1V954.3z M615,956.2v7.2h1.6c0.6,0,1.1,0,1.3-0.1c0.4-0.1,0.7-0.2,0.9-0.5
			c0.2-0.2,0.4-0.6,0.6-1c0.1-0.5,0.2-1.1,0.2-2c0-0.8-0.1-1.5-0.2-1.9s-0.4-0.8-0.6-1.1c-0.3-0.3-0.6-0.4-1-0.5
			c-0.3-0.1-0.9-0.1-1.8-0.1H615z"/>
		<path fill="#5B5B5F" stroke="#273B50" stroke-width="5.000000e-002" d="M628,962.7l2.1,0.3c-0.3,0.8-0.7,1.3-1.3,1.7
			c-0.6,0.4-1.3,0.6-2.2,0.6c-1.4,0-2.4-0.4-3-1.3c-0.5-0.7-0.8-1.6-0.8-2.7c0-1.3,0.3-2.3,1-3.1c0.7-0.7,1.5-1.1,2.6-1.1
			c1.2,0,2.1,0.4,2.8,1.2c0.7,0.8,1,2,1,3.6H625c0,0.6,0.2,1.1,0.5,1.4c0.3,0.3,0.7,0.5,1.2,0.5c0.3,0,0.6-0.1,0.8-0.3
			C627.8,963.4,627.9,963.1,628,962.7z M628.2,960.6c0-0.6-0.2-1.1-0.5-1.4c-0.3-0.3-0.7-0.5-1.1-0.5c-0.5,0-0.8,0.2-1.1,0.5
			c-0.3,0.3-0.4,0.8-0.4,1.3H628.2z"/>
		<path fill="#5B5B5F" stroke="#273B50" stroke-width="5.000000e-002" d="M630.9,962.9l2.1-0.3c0.1,0.4,0.3,0.7,0.5,0.9
			c0.3,0.2,0.7,0.3,1.1,0.3c0.5,0,0.9-0.1,1.2-0.3c0.2-0.1,0.3-0.3,0.3-0.6c0-0.2,0-0.3-0.1-0.4c-0.1-0.1-0.3-0.2-0.7-0.3
			c-1.7-0.4-2.7-0.7-3.2-1c-0.6-0.4-0.9-1-0.9-1.8c0-0.7,0.3-1.3,0.8-1.7c0.5-0.5,1.4-0.7,2.5-0.7c1.1,0,1.9,0.2,2.4,0.5
			c0.5,0.4,0.9,0.9,1.1,1.6l-2,0.4c-0.1-0.3-0.2-0.5-0.5-0.7c-0.2-0.2-0.6-0.2-1-0.2c-0.5,0-0.9,0.1-1.2,0.2
			c-0.2,0.1-0.2,0.2-0.2,0.4c0,0.1,0.1,0.3,0.2,0.4c0.2,0.1,0.8,0.3,1.9,0.6c1.1,0.3,1.9,0.6,2.3,0.9c0.4,0.4,0.7,0.9,0.7,1.5
			c0,0.7-0.3,1.3-0.9,1.9c-0.6,0.5-1.5,0.8-2.7,0.8c-1.1,0-1.9-0.2-2.5-0.7C631.5,964.3,631.1,963.7,630.9,962.9z"/>
		<path fill="#5B5B5F" stroke="#273B50" stroke-width="5.000000e-002" d="M639.8,956.2v-1.9h2.1v1.9H639.8z M639.8,965.2v-7.9h2.1
			v7.9H639.8z"/>
		<path fill="#5B5B5F" stroke="#273B50" stroke-width="5.000000e-002" d="M643.5,965.7l2.4,0.3c0,0.3,0.1,0.5,0.3,0.6
			c0.2,0.1,0.5,0.2,0.9,0.2c0.5,0,1-0.1,1.2-0.2c0.2-0.1,0.3-0.3,0.4-0.5c0.1-0.2,0.1-0.5,0.1-1v-1.1c-0.6,0.8-1.4,1.3-2.4,1.3
			c-1.1,0-1.9-0.4-2.5-1.3c-0.5-0.7-0.7-1.6-0.7-2.6c0-1.3,0.3-2.3,1-3c0.6-0.7,1.4-1,2.4-1c1,0,1.8,0.4,2.4,1.3v-1.1h1.9v7.1
			c0,0.9-0.1,1.6-0.2,2.1c-0.2,0.5-0.4,0.8-0.6,1.1c-0.3,0.3-0.6,0.5-1.1,0.6c-0.5,0.1-1,0.2-1.8,0.2c-1.3,0-2.3-0.2-2.8-0.7
			c-0.6-0.5-0.8-1-0.8-1.7C643.5,965.9,643.5,965.8,643.5,965.7z M645.3,961.1c0,0.8,0.2,1.4,0.5,1.8c0.3,0.4,0.7,0.6,1.2,0.6
			c0.5,0,0.9-0.2,1.3-0.6c0.4-0.4,0.5-1,0.5-1.8c0-0.8-0.2-1.4-0.5-1.8c-0.3-0.4-0.8-0.6-1.3-0.6c-0.5,0-0.9,0.2-1.2,0.6
			S645.3,960.3,645.3,961.1z"/>
		<path fill="#5B5B5F" stroke="#273B50" stroke-width="5.000000e-002" d="M659.8,965.2h-2.1v-4c0-0.8,0-1.4-0.1-1.6
			c-0.1-0.2-0.2-0.4-0.4-0.6c-0.2-0.1-0.4-0.2-0.7-0.2c-0.4,0-0.7,0.1-1,0.3c-0.3,0.2-0.5,0.5-0.6,0.8s-0.2,0.9-0.2,1.8v3.6h-2.1
			v-7.9h1.9v1.2c0.7-0.9,1.6-1.3,2.6-1.3c0.5,0,0.9,0.1,1.3,0.2c0.4,0.2,0.7,0.4,0.9,0.6c0.2,0.3,0.3,0.5,0.4,0.9
			c0.1,0.3,0.1,0.8,0.1,1.4V965.2z"/>
		<path fill="#5B5B5F" stroke="#273B50" stroke-width="5.000000e-002" d="M666.2,962.7l2.1,0.3c-0.3,0.8-0.7,1.3-1.3,1.7
			c-0.6,0.4-1.3,0.6-2.2,0.6c-1.4,0-2.4-0.4-3-1.3c-0.5-0.7-0.8-1.6-0.8-2.7c0-1.3,0.3-2.3,1-3.1s1.5-1.1,2.6-1.1
			c1.2,0,2.1,0.4,2.8,1.2c0.7,0.8,1,2,1,3.6h-5.2c0,0.6,0.2,1.1,0.5,1.4c0.3,0.3,0.7,0.5,1.2,0.5c0.3,0,0.6-0.1,0.8-0.3
			C665.9,963.4,666,963.1,666.2,962.7z M666.3,960.6c0-0.6-0.2-1.1-0.5-1.4c-0.3-0.3-0.7-0.5-1.1-0.5c-0.5,0-0.8,0.2-1.1,0.5
			c-0.3,0.3-0.4,0.8-0.4,1.3H666.3z"/>
		<path fill="#5B5B5F" stroke="#273B50" stroke-width="5.000000e-002" d="M677,965.2H675V964c-0.3,0.4-0.7,0.8-1.1,1
			c-0.4,0.2-0.9,0.3-1.3,0.3c-0.9,0-1.7-0.4-2.3-1.1c-0.6-0.7-1-1.7-1-3c0-1.3,0.3-2.3,0.9-3c0.6-0.7,1.4-1,2.4-1
			c0.9,0,1.6,0.4,2.3,1.1v-3.9h2.1V965.2z M671.4,961.1c0,0.8,0.1,1.4,0.3,1.8c0.3,0.5,0.8,0.8,1.4,0.8c0.5,0,0.9-0.2,1.2-0.6
			c0.3-0.4,0.5-1,0.5-1.8c0-0.9-0.2-1.6-0.5-2c-0.3-0.4-0.7-0.6-1.3-0.6c-0.5,0-0.9,0.2-1.2,0.6
			C671.6,959.7,671.4,960.3,671.4,961.1z"/>
		<path fill="#5B5B5F" stroke="#273B50" stroke-width="5.000000e-002" d="M682.5,965.2v-10.9h2.1v3.9c0.6-0.7,1.4-1.1,2.3-1.1
			c1,0,1.8,0.3,2.4,1c0.6,0.7,0.9,1.7,0.9,3c0,1.3-0.3,2.4-1,3.1c-0.6,0.7-1.4,1.1-2.3,1.1c-0.4,0-0.9-0.1-1.3-0.3
			c-0.4-0.2-0.8-0.6-1.1-1v1.2H682.5z M684.6,961.1c0,0.8,0.1,1.4,0.4,1.8c0.4,0.6,0.8,0.8,1.4,0.8c0.5,0,0.9-0.2,1.2-0.6
			c0.3-0.4,0.5-1,0.5-1.9c0-0.9-0.2-1.5-0.5-1.9s-0.7-0.6-1.3-0.6c-0.5,0-0.9,0.2-1.2,0.6S684.6,960.3,684.6,961.1z"/>
		<path fill="#5B5B5F" stroke="#273B50" stroke-width="5.000000e-002" d="M690.6,957.3h2.2l1.9,5.6l1.8-5.6h2.2l-2.8,7.6l-0.5,1.4
			c-0.2,0.5-0.4,0.8-0.5,1.1s-0.4,0.4-0.6,0.6c-0.2,0.2-0.5,0.3-0.8,0.4c-0.3,0.1-0.7,0.1-1.1,0.1c-0.4,0-0.8,0-1.2-0.1l-0.2-1.6
			c0.3,0.1,0.6,0.1,0.9,0.1c0.5,0,0.8-0.1,1.1-0.4c0.2-0.3,0.4-0.6,0.5-1.1L690.6,957.3z"/>
	</g>
</g>
</svg>
