<?xml version="1.0" standalone="no"?>
<!DOCTYPE svg PUBLIC "-//W3C//DTD SVG 20010904//EN"
 "http://www.w3.org/TR/2001/REC-SVG-20010904/DTD/svg10.dtd">
<svg version="1.0" xmlns="http://www.w3.org/2000/svg"
 width="260.000000pt" height="260.000000pt" viewBox="0 0 260.000000 260.000000"
 preserveAspectRatio="xMidYMid meet">
<metadata>
Created by potrace 1.11, written by Peter Selinger 2001-2013
</metadata>
<g transform="translate(0.000000,260.000000) scale(0.100000,-0.100000)"
fill="#000000" stroke="none">
<path d="M1112 2556 c-4 -6 -21 -44 -38 -85 -28 -65 -36 -76 -69 -89 -34 -14
-40 -13 -116 17 -44 17 -86 31 -92 31 -7 0 -33 -22 -59 -48 l-47 -47 36 -83
c34 -79 35 -85 21 -120 -12 -32 -23 -40 -98 -73 l-85 -36 0 -74 0 -73 87 -34
c83 -32 88 -36 99 -72 10 -34 8 -46 -22 -119 l-33 -81 49 -50 c27 -28 53 -50
58 -50 5 0 45 15 88 34 43 19 79 30 79 25 0 -6 18 -34 40 -63 l41 -54 -22 -36
c-11 -20 -22 -36 -24 -36 -2 0 2 16 8 36 11 35 10 37 -32 76 l-43 41 -71 -30
c-104 -42 -125 -34 -168 63 l-32 74 -64 0 c-52 0 -65 -3 -70 -17 -3 -10 -14
-37 -24 -60 -11 -23 -19 -47 -19 -52 0 -12 -68 -43 -79 -37 -4 3 -37 16 -73
30 l-66 24 -46 -41 -45 -42 30 -70 c30 -71 32 -112 6 -133 -7 -6 -42 -22 -79
-37 l-68 -27 0 -63 0 -63 74 -27 c68 -25 74 -30 86 -64 10 -31 10 -43 -3 -67
-8 -16 -20 -46 -27 -67 -12 -39 -12 -39 30 -82 l42 -43 73 30 c102 41 119 35
166 -62 l36 -75 57 -2 c54 -2 58 -1 77 30 10 18 25 49 31 70 7 25 21 43 39 53
38 19 46 18 53 -11 4 -14 12 -25 19 -26 6 0 41 -1 76 -2 l63 -2 16 -39 15 -38
-53 -49 -52 -48 21 -33 c11 -18 25 -39 30 -47 7 -11 19 -9 66 13 32 14 62 26
68 26 6 0 26 -14 43 -31 l33 -32 -36 -64 c-19 -36 -31 -68 -27 -72 5 -4 25
-19 45 -33 l35 -26 40 36 c70 66 67 65 113 39 22 -13 39 -26 37 -28 -3 -2 -8
-36 -11 -74 l-7 -71 50 -15 50 -16 33 63 c27 54 37 64 58 64 54 0 70 -11 77
-49 3 -20 10 -52 15 -72 9 -36 9 -36 61 -35 l52 1 14 70 c8 39 16 72 18 74 2
2 21 7 44 11 44 8 45 8 81 -60 38 -73 35 -71 87 -50 26 10 46 22 45 27 -1 5
-5 41 -8 79 l-7 70 41 19 42 18 37 -34 c81 -75 73 -73 120 -34 l41 36 -34 57
c-19 31 -35 63 -35 70 0 7 14 26 30 44 l30 31 63 -27 c34 -14 67 -26 73 -26 6
0 23 17 37 37 l25 38 -56 57 -55 57 18 41 c10 22 23 40 29 41 20 2 91 -2 118
-7 30 -5 38 11 41 76 2 29 -2 33 -63 60 l-64 28 3 44 c1 24 6 47 10 51 4 4 37
16 72 26 l64 18 0 51 c0 29 -3 53 -7 53 -26 4 -53 7 -93 8 -48 1 -54 7 -69 76
-6 30 7 44 106 106 11 7 -25 99 -39 99 -4 0 -35 -7 -68 -15 -33 -8 -63 -14
-66 -15 -13 0 -59 81 -52 93 4 7 24 34 44 60 l38 48 -36 37 c-20 20 -40 36
-44 35 -5 -2 -33 -19 -64 -38 l-55 -36 -35 27 c-39 29 -42 43 -20 104 23 64
20 74 -29 97 l-44 22 -42 -59 -42 -58 -41 14 c-59 21 -62 26 -61 98 l0 65 -48
6 c-43 6 -47 9 -31 20 13 10 18 29 20 79 l2 66 -37 18 c-20 11 -60 27 -89 37
-43 15 -54 24 -66 55 -14 35 -13 41 13 101 47 110 47 103 -10 158 l-50 49 -52
-20 c-28 -10 -65 -26 -81 -35 -25 -13 -37 -13 -70 -3 -36 11 -41 17 -79 99
l-39 87 -70 1 c-40 0 -73 -4 -77 -11z m161 -429 c184 -84 135 -348 -68 -369
-80 -9 -170 45 -201 119 -33 77 -6 177 59 227 67 51 133 58 210 23z m494 -279
c-2 -7 -13 -36 -23 -64 l-18 -51 -53 0 c-42 0 -53 3 -53 16 1 35 29 65 81 87
64 26 73 28 66 12z m12 -388 c234 -42 415 -246 425 -480 8 -155 -46 -292 -155
-400 -65 -65 -165 -125 -227 -137 -80 -15 -129 -20 -151 -17 -15 1 -46 5 -71
8 -185 19 -367 186 -421 386 -25 93 -9 260 34 350 100 213 333 332 566 290z
m-1104 -230 c90 -34 125 -146 75 -240 -48 -90 -194 -106 -267 -28 -87 92 -49
235 72 275 35 12 78 9 120 -7z"/>
<path d="M1585 1395 c-91 -23 -153 -57 -223 -125 -154 -147 -174 -416 -44
-589 44 -58 103 -109 158 -135 21 -10 47 -23 56 -27 31 -16 145 -29 194 -23
210 24 365 168 410 379 3 11 5 47 6 80 3 197 -145 383 -350 440 -44 13 -158
13 -207 0z m202 -270 c62 -41 94 -100 95 -176 4 -163 -170 -259 -309 -173
-159 98 -109 341 77 374 41 7 105 -5 137 -25z"/>
</g>
</svg>
